HIERARCHY
ROOT Hips
{
	OFFSET 0.000000 0.000000 0.000000
	CHANNELS 6 Xposition Yposition Zposition Zrotation Yrotation Xrotation 
	JOINT LHipJoint
	{
		OFFSET 0.000000 0.000000 0.000000
		CHANNELS 3 Zrotation Yrotation Xrotation
		JOINT LeftUpLeg
		{
			OFFSET 1.363060 -1.794630 0.839290
			CHANNELS 3 Zrotation Yrotation Xrotation
			JOINT LeftLeg
			{
				OFFSET 2.448110 -6.726130 0.000000
				CHANNELS 3 Zrotation Yrotation Xrotation
				JOINT LeftFoot
				{
					OFFSET 2.562200 -7.039590 0.000000
					CHANNELS 3 Zrotation Yrotation Xrotation
					JOINT LeftToeBase
					{
						OFFSET 0.157640 -0.433110 2.322550
						CHANNELS 3 Zrotation Yrotation Xrotation
						End Site
						{
							OFFSET 0.000000 0.000000 0.000000
						}
					}
				}
			}
		}
	}
	JOINT RHipJoint
	{
		OFFSET 0.000000 0.000000 0.000000
		CHANNELS 3 Zrotation Yrotation Xrotation
		JOINT RightUpLeg
		{
			OFFSET -1.305520 -1.794630 0.839290
			CHANNELS 3 Zrotation Yrotation Xrotation
			JOINT RightLeg
			{
				OFFSET -2.542530 -6.985550 0.000000
				CHANNELS 3 Zrotation Yrotation Xrotation
				JOINT RightFoot
				{
					OFFSET -2.568260 -7.056230 0.000000
					CHANNELS 3 Zrotation Yrotation Xrotation
					JOINT RightToeBase
					{
						OFFSET -0.164730 -0.452590 2.363150
						CHANNELS 3 Zrotation Yrotation Xrotation
						End Site
						{
							OFFSET 0.000000 0.000000 0.000000
						}
					}
				}
			}
		}
	}
	JOINT LowerBack
	{
		OFFSET 0.000000 0.000000 0.000000
		CHANNELS 3 Zrotation Yrotation Xrotation
		JOINT Spine
		{
			OFFSET 0.028270 2.035590 -0.193380
			CHANNELS 3 Zrotation Yrotation Xrotation
			JOINT Spine1
			{
				OFFSET 0.056720 2.048850 -0.042750
				CHANNELS 3 Zrotation Yrotation Xrotation
				JOINT Neck
				{
					OFFSET 0.000000 0.000000 0.000000
					CHANNELS 3 Zrotation Yrotation Xrotation
					JOINT Neck1
					{
						OFFSET -0.054170 1.746240 0.172020
						CHANNELS 3 Zrotation Yrotation Xrotation
						JOINT Head
						{
							OFFSET 0.104070 1.761360 -0.123970
							CHANNELS 3 Zrotation Yrotation Xrotation
							End Site
							{
								OFFSET 0.000000 0.000000 0.000000
							}
						}
					}
				}
				JOINT LeftShoulder
				{
					OFFSET 0.000000 0.000000 0.000000
					CHANNELS 3 Zrotation Yrotation Xrotation
					JOINT LeftArm
					{
						OFFSET 3.362410 1.200890 -0.311210
						CHANNELS 3 Zrotation Yrotation Xrotation
						JOINT LeftForeArm
						{
							OFFSET 4.983000 -0.000000 -0.000000
							CHANNELS 3 Zrotation Yrotation Xrotation
							JOINT LeftHand
							{
								OFFSET 3.483560 -0.000000 -0.000000
								CHANNELS 3 Zrotation Yrotation Xrotation
								JOINT LeftFingerBase
								{
									OFFSET 0.000000 0.000000 0.000000
									CHANNELS 3 Zrotation Yrotation Xrotation
									JOINT LeftHandIndex1
									{
										OFFSET 0.715260 -0.000000 -0.000000
										CHANNELS 3 Zrotation Yrotation Xrotation
										End Site
										{
											OFFSET 0.000000 0.000000 0.000000
										}
									}
								}
								JOINT LThumb
								{
									OFFSET 0.000000 0.000000 0.000000
									CHANNELS 3 Zrotation Yrotation Xrotation
									End Site
									{
										OFFSET 0.000000 0.000000 0.000000
									}
								}
							}
						}
					}
				}
				JOINT RightShoulder
				{
					OFFSET 0.000000 0.000000 0.000000
					CHANNELS 3 Zrotation Yrotation Xrotation
					JOINT RightArm
					{
						OFFSET -3.136600 1.374050 -0.404650
						CHANNELS 3 Zrotation Yrotation Xrotation
						JOINT RightForeArm
						{
							OFFSET -5.241900 -0.000000 -0.000000
							CHANNELS 3 Zrotation Yrotation Xrotation
							JOINT RightHand
							{
								OFFSET -3.444170 -0.000000 -0.000000
								CHANNELS 3 Zrotation Yrotation Xrotation
								JOINT RightFingerBase
								{
									OFFSET 0.000000 0.000000 0.000000
									CHANNELS 3 Zrotation Yrotation Xrotation
									JOINT RightHandIndex1
									{
										OFFSET -0.622530 -0.000000 -0.000000
										CHANNELS 3 Zrotation Yrotation Xrotation
										End Site
										{
											OFFSET 0.000000 0.000000 0.000000
										}
									}
								}
								JOINT RThumb
								{
									OFFSET 0.000000 0.000000 0.000000
									CHANNELS 3 Zrotation Yrotation Xrotation
									End Site
									{
										OFFSET 0.000000 0.000000 0.000000
									}
								}
							}
						}
					}
				}
			}
		}
	}
}
MOTION
Frames: 7
Frame Time: 0.008333
-10.416645 17.537750 -22.486650 -179.118217 0.617180 -172.082458 -1.604674 17.765192 -3.427644 -17.038794 4.933849 -6.759900 -0.758412 0.838781 16.746501 29.316916 -12.546752 -9.027126 -4.047557 0.372291 -8.498700 0.161350 -20.458620 5.044248 19.223459 7.772210 -12.604986 -2.540507 3.638922 20.459947 -25.214770 13.823874 -14.642622 5.578150 -3.183272 -6.925481 1.168942 -1.925174 5.475789 -10.015257 -2.400457 9.513658 7.509054 14.296467 -25.458011 0.211496 2.180670 -17.084163 6.228478 1.037079 1.866170 -1.605156 -1.320689 -12.960372 21.233363 35.683341 -4.850950 -50.866585 -30.887839 25.715949 3.688048 -8.524245 15.255749 -0.883935 0.798501 3.321235 -1.704414 8.486028 -0.000000 0.000000 0.000000 0.000000 0.000000 0.000000 0.000000 -11.169697 -27.696460 0.198320 21.840463 4.283645 14.030209 -8.902880 27.609441 -2.102100 -2.736868 -14.869745 -1.687178 -2.970205 -12.611170 0.000000 0.000000 0.000000 0.000000 0.000000 0.000000 0.000000 
-10.415865 17.537900 -22.488450 -179.120623 0.602483 -172.078749 -1.604657 17.771374 -3.428438 -17.040264 4.937516 -6.762685 -0.755373 0.837989 16.746888 29.376993 -12.548069 -9.047767 -4.022182 0.359887 -8.478799 0.162060 -20.451281 5.035839 19.224261 7.764620 -12.593140 -2.542294 3.630404 20.459169 -25.214575 13.814520 -14.642510 5.585827 -3.184728 -6.947155 1.171976 -1.937434 5.490460 -9.999268 -2.413302 9.529659 7.531938 14.257718 -25.465869 0.239653 2.047237 -17.070326 6.210128 0.905215 1.955668 -1.622218 -1.362311 -12.920542 21.220696 35.744881 -4.852586 -50.862392 -30.866224 25.745496 3.669396 -8.512468 15.240818 -0.894962 0.779335 3.306931 -1.713277 8.485333 -0.000000 0.000000 0.000000 0.000000 0.000000 0.000000 0.000000 -11.169320 -27.674407 0.176280 21.843750 4.344271 14.049211 -8.889306 27.603187 -2.113058 -2.737867 -14.860122 -1.696614 -2.972272 -12.610221 0.000000 0.000000 0.000000 0.000000 0.000000 0.000000 0.000000 
-10.415025 17.537750 -22.490400 -179.126806 0.585020 -172.076907 -1.603853 17.774150 -3.424344 -17.042447 4.935011 -6.764437 -0.756076 0.830451 16.750267 29.369136 -12.559290 -9.045536 -4.027036 0.361037 -8.483686 0.162663 -20.441396 5.030339 19.218507 7.761318 -12.584207 -2.543647 3.619591 20.463974 -25.203380 13.803982 -14.657091 5.585153 -3.186400 -6.940594 1.178607 -1.946972 5.494754 -10.000769 -2.423402 9.533951 7.542061 14.249653 -25.468724 0.242943 2.021339 -17.066616 6.205967 0.880144 1.988340 -1.625552 -1.368959 -12.906919 21.220225 35.754220 -4.852029 -50.878432 -30.835319 25.735151 3.665347 -8.531810 15.207170 -0.886426 0.793920 3.292755 -1.703294 8.485176 -0.000000 0.000000 0.000000 0.000000 0.000000 0.000000 0.000000 -11.162661 -27.672758 0.165078 21.846162 4.370807 14.059432 -8.894812 27.606906 -2.108300 -2.741178 -14.864520 -1.691867 -2.974999 -12.610720 0.000000 0.000000 0.000000 0.000000 0.000000 0.000000 0.000000 
-10.414140 17.536850 -22.492050 -179.132729 0.559223 -172.080247 -1.604155 17.774604 -3.421958 -17.043621 4.931695 -6.764837 -0.753133 0.829958 16.765314 29.385291 -12.565873 -9.063937 -4.023800 0.356807 -8.488225 0.163661 -20.442806 5.026664 19.216478 7.754574 -12.577263 -2.551064 3.603720 20.479707 -25.206779 13.789730 -14.679489 5.580071 -3.185633 -6.932120 1.186528 -1.944917 5.494263 -10.007549 -2.422319 9.527460 7.527397 14.257442 -25.463919 0.232801 2.055014 -17.077591 6.203741 0.914038 1.959153 -1.622354 -1.352677 -12.920626 21.209974 35.741562 -4.843810 -50.891913 -30.874665 25.780321 3.668726 -8.533529 15.232779 -0.881835 0.786000 3.309303 -1.702005 8.484982 -0.000000 0.000000 0.000000 0.000000 0.000000 0.000000 0.000000 -11.155148 -27.682524 0.179416 21.849698 4.341189 14.057125 -8.889968 27.625368 -2.108931 -2.740206 -14.871959 -1.695157 -2.974042 -12.612382 0.000000 0.000000 0.000000 0.000000 0.000000 0.000000 0.000000 
-10.413210 17.536550 -22.493700 -179.138028 0.535628 -172.076252 -1.604822 17.773870 -3.422389 -17.046506 4.925183 -6.769074 -0.750110 0.828502 16.777179 29.389630 -12.570023 -9.068741 -4.025932 0.354862 -8.497050 0.165718 -20.435029 5.018941 19.214241 7.753369 -12.570673 -2.556387 3.590139 20.489657 -25.186321 13.773121 -14.697077 5.583949 -3.190400 -6.929128 1.193538 -1.953180 5.507418 -10.005085 -2.431646 9.517742 7.526100 14.247335 -25.471221 0.243001 2.010014 -17.065921 6.198705 0.869159 1.991011 -1.627911 -1.367672 -12.906257 21.198946 35.765376 -4.848493 -50.905718 -30.873789 25.777212 3.667811 -8.559494 15.242934 -0.875981 0.801408 3.318230 -1.698550 8.485248 -0.000000 0.000000 0.000000 0.000000 0.000000 0.000000 0.000000 -11.155890 -27.677934 0.158573 21.878107 4.355348 14.040433 -8.903217 27.599938 -2.107022 -2.734476 -14.856678 -1.693464 -2.970604 -12.608658 0.000000 0.000000 0.000000 0.000000 0.000000 0.000000 0.000000 
-10.412220 17.536100 -22.495350 -179.141167 0.513077 -172.075405 -1.604569 17.776979 -3.418651 -17.045527 4.921086 -6.774273 -0.751025 0.825990 16.787951 29.393076 -12.578395 -9.074438 -4.024019 0.354260 -8.495410 0.168067 -20.433724 5.008641 19.216331 7.743832 -12.561096 -2.563812 3.574137 20.501544 -25.199543 13.757285 -14.717992 5.578011 -3.187956 -6.924658 1.196722 -1.958777 5.516629 -10.003254 -2.438475 9.519507 7.536756 14.235874 -25.467134 0.257179 1.952998 -17.068571 6.185699 0.813367 2.026160 -1.636229 -1.381313 -12.891782 21.185688 35.791548 -4.851457 -50.917706 -30.878163 25.796154 3.662288 -8.571476 15.236981 -0.878186 0.794398 3.313239 -1.700577 8.484769 -0.000000 0.000000 0.000000 0.000000 0.000000 0.000000 0.000000 -11.147557 -27.663749 0.171848 21.857876 4.350114 14.049907 -8.868942 27.627454 -2.124168 -2.725382 -14.773720 -1.708591 -2.961068 -12.598283 0.000000 0.000000 0.000000 0.000000 0.000000 0.000000 0.000000 
-10.411410 17.535500 -22.497000 -179.145304 0.492330 -172.074516 -1.603423 17.780609 -3.416855 -17.047517 4.916869 -6.779306 -0.749877 0.822658 16.801328 29.401372 -12.588509 -9.085538 -4.026869 0.350563 -8.509749 0.170312 -20.424026 5.002944 19.214283 7.742096 -12.550311 -2.570866 3.561216 20.506908 -25.192292 13.738733 -14.734944 5.578067 -3.189518 -6.923556 1.199341 -1.969182 5.522714 -10.011215 -2.450331 9.519868 7.563293 14.231800 -25.455485 0.270958 1.906144 -17.074828 6.172924 0.767796 2.060824 -1.643533 -1.390472 -12.878181 21.180156 35.815070 -4.853690 -50.943234 -30.874699 25.805997 3.660997 -8.566739 15.235274 -0.874245 0.784141 3.312790 -1.696418 8.483383 -0.000000 0.000000 0.000000 0.000000 0.000000 0.000000 0.000000 -11.129864 -27.653348 0.197553 21.803679 4.358326 14.093848 -8.836650 27.668710 -2.130974 -2.722957 -14.780215 -1.717839 -2.955223 -12.603335 0.000000 0.000000 0.000000 0.000000 0.000000 0.000000 0.000000 
